<?xml version="1.0" encoding="UTF-8"?>
<svg id="Layer_1" data-name="Layer 1" xmlns="http://www.w3.org/2000/svg" viewBox="0 0 639.978 512">
  <defs>
    <style>
      .cls-1 {
        fill: #fff;
      }
    </style>
  </defs>
  <path class="cls-1" d="M208.011,352c114.9,0,208-78.8,208-176S322.911,0,208.011,0,.011,78.8.011,176C.011,214.6,14.711,250.3,39.611,279.4c-3.5,9.4-8.7,17.7-14.2,24.7-4.8,6.2-9.7,11-13.3,14.3-1.8,1.6-3.3,2.9-4.3,3.7-.5.4-.9.7-1.1.8l-.2.2h0c-5.5,4.1-7.9,11.3-5.7,17.8s8.3,11.1,15.2,11.1c21.8,0,43.8-5.6,62.1-12.5,9.2-3.5,17.8-7.4,25.2-11.4,30.8,15.2,66.5,23.9,104.7,23.9ZM448.011,176c0,112.3-99.1,196.9-216.5,207,24.3,74.4,104.9,129,200.5,129,38.2,0,73.9-8.7,104.7-23.9,7.5,4,16,7.9,25.2,11.4,18.3,6.9,40.3,12.5,62.1,12.5,6.9,0,13.1-4.5,15.2-11.1,2.1-6.6-.2-13.8-5.8-17.9h0l-.2-.2c-.2-.2-.6-.4-1.1-.8-1-.8-2.5-2-4.3-3.7-3.6-3.3-8.5-8.1-13.3-14.3-5.5-7-10.7-15.4-14.2-24.7,24.9-29,39.6-64.7,39.6-103.4,0-92.8-84.9-168.9-192.6-175.5.4,5.1.6,10.3.6,15.5l.1.1Z"/>
</svg>